<svg width="107" height="52" viewBox="0 0 107 52" fill="none" xmlns="http://www.w3.org/2000/svg">
<path d="M23.5234 27.8085C22.3181 27.3507 21.2621 26.5697 20.4711 25.551C19.7053 24.5531 19.3229 23.3535 19.3238 21.9521H24.145C24.145 22.5759 24.4903 23.0817 25.181 23.4697C25.8716 23.8576 26.7466 24.052 27.8059 24.0528C28.816 24.0528 29.5999 23.88 30.1576 23.5345C30.7153 23.1889 30.9942 22.7413 30.9942 22.1919C30.9942 21.6216 30.6829 21.2199 30.0605 20.9866C29.438 20.7533 28.4396 20.5175 27.0652 20.279C25.7761 20.076 24.5027 19.7837 23.254 19.4043C22.2491 19.0841 21.3449 18.5075 20.6304 17.7312C19.8905 16.9398 19.521 15.8166 19.5219 14.3617C19.5165 13.2639 19.8944 12.1987 20.5902 11.3499C21.3025 10.4549 22.2681 9.75462 23.4871 9.2492C24.7839 8.72763 26.1715 8.46948 27.5689 8.48977C29.8999 8.48977 31.8048 9.05394 33.2837 10.1823C34.7626 11.3106 35.5011 12.8735 35.4994 14.871H30.6769C30.6769 14.3267 30.3592 13.8727 29.7238 13.509C29.0395 13.1339 28.2686 12.9462 27.4886 12.9647C26.659 12.9647 25.9657 13.1332 25.4089 13.4701C24.852 13.8071 24.5732 14.2351 24.5723 14.7544C24.5723 15.2209 24.8706 15.5713 25.4672 15.8054C26.0637 16.0395 27.0095 16.2599 28.3045 16.4663C29.6055 16.6736 30.8916 16.9658 32.1545 17.3411C33.1863 17.6636 34.1211 18.2392 34.8739 19.0155C35.6509 19.806 36.0394 20.9015 36.0394 22.302C36.0653 24.3755 35.3073 25.9384 33.7654 26.9908C32.2235 28.0431 30.1947 28.5684 27.679 28.5666C26.2582 28.5812 24.8477 28.3239 23.5234 27.8085Z" fill="white"/>
<path d="M71.1477 8.80209H76.1982V28.2517H71.1477V8.80209Z" fill="white"/>
<path d="M79.7788 28.2517V1.01991H84.8292V28.2517H79.7788Z" fill="white"/>
<path d="M88.2726 13.5673C89.1228 12.0445 90.3557 10.7704 91.8494 9.87125C93.3536 8.95393 95.084 8.47545 96.8454 8.48977C98.5075 8.49097 100.146 8.88435 101.628 9.63798C103.155 10.4008 104.461 11.5448 105.418 12.9595C106.417 14.4118 106.942 16.1238 106.993 18.0954C107.02 18.9024 106.968 19.7102 106.837 20.5071H92.414C92.6227 21.4319 93.1708 22.2445 93.9498 22.7841C94.7397 23.3414 95.7049 23.62 96.8454 23.62C97.6483 23.62 98.3027 23.5163 98.8086 23.309C99.3065 23.1066 99.7717 22.8314 100.189 22.4925L106.216 22.5314C105.424 24.306 104.143 25.8176 102.523 26.8884C100.895 27.9945 98.9685 28.5781 97.0008 28.5614C95.2271 28.5783 93.4819 28.1144 91.9504 27.2188C90.4434 26.3461 89.1911 25.0937 88.3179 23.5863C87.4268 22.0649 86.9637 20.3305 86.9776 18.5671C86.9651 16.8159 87.4116 15.0919 88.2726 13.5673ZM101.589 16.4663C101.199 15.5708 100.558 14.8076 99.7439 14.269C98.9296 13.7303 97.9768 13.4393 97.0008 13.4312C95.913 13.4312 94.9802 13.7038 94.2023 14.249C93.4123 14.8078 92.7931 15.5755 92.414 16.4663H101.589Z" fill="white"/>
<path d="M104.417 43.9327H106.966V46.4728H104.417V43.9327Z" fill="#F15D6F"/>
<path d="M72.8973 46.1721C72.276 45.9353 71.7321 45.5318 71.3252 45.0058C70.926 44.4729 70.7179 43.8209 70.7346 43.1551H73.2171C73.2171 43.4765 73.3941 43.7357 73.7481 43.9327C74.1652 44.148 74.631 44.2516 75.1 44.2334C75.618 44.2334 76.022 44.1435 76.3121 43.9638C76.5983 43.7824 76.7421 43.553 76.7421 43.2718C76.7421 42.9906 76.5828 42.7715 76.2616 42.651C75.7592 42.4875 75.2436 42.3678 74.7206 42.2933C74.057 42.1887 73.4014 42.038 72.7587 41.8423C72.2407 41.6779 71.7746 41.3808 71.4067 40.9805C71.026 40.5736 70.8356 39.996 70.8356 39.2479C70.8327 38.6812 71.0273 38.1312 71.386 37.6927C71.7829 37.21 72.2971 36.8374 72.8791 36.6106C73.5471 36.3432 74.2615 36.211 74.9809 36.2218C76.1826 36.2218 77.1642 36.5125 77.9257 37.094C78.6871 37.6754 79.0674 38.4806 79.0666 39.5096H76.5828C76.5828 39.2284 76.4183 38.9913 76.092 38.8072C75.7395 38.6143 75.3424 38.5178 74.9407 38.5273C74.5663 38.5135 74.1953 38.6032 73.8685 38.7865C73.581 38.9602 73.4386 39.1753 73.4386 39.4474C73.4386 39.6885 73.5918 39.869 73.8983 39.9891C74.3734 40.1499 74.8631 40.264 75.3603 40.33C76.0304 40.4363 76.6927 40.587 77.3429 40.781C77.8752 40.9461 78.3574 41.2424 78.7454 41.6428C79.1451 42.0497 79.3454 42.6143 79.3463 43.3366C79.3592 44.4044 78.9686 45.2092 78.1743 45.7509C77.3801 46.2926 76.3354 46.5631 75.0404 46.5622C74.3077 46.5701 73.5803 46.4377 72.8973 46.1721Z" fill="white"/>
<path d="M88.0071 36.9125C89.1036 37.5425 89.9336 38.5501 90.3424 39.7473C90.7512 40.9446 90.7109 42.2498 90.2291 43.4195C89.7472 44.5893 88.8566 45.5436 87.7234 46.1047C86.5902 46.6657 85.2917 46.7951 84.0702 46.4687C82.8487 46.1423 81.7876 45.3825 81.0846 44.3308C80.3817 43.2792 80.085 42.0075 80.2499 40.7531C80.4147 39.4987 81.0299 38.3471 81.9807 37.5131C82.9314 36.6791 84.1529 36.2197 85.4172 36.2205C86.3268 36.2155 87.2211 36.4544 88.0071 36.9125ZM83.5912 39.5174C83.1154 40.0252 82.8506 40.6952 82.8506 41.3913C82.8506 42.0875 83.1154 42.7575 83.5912 43.2653C83.83 43.5109 84.117 43.7045 84.4341 43.8339C84.7512 43.9632 85.0916 44.0256 85.434 44.0169C85.7734 44.0268 86.1111 43.965 86.4251 43.8355C86.739 43.7059 87.0222 43.5117 87.256 43.2653C87.7204 42.7518 87.9775 42.0839 87.9775 41.3913C87.9775 40.6988 87.7204 40.0309 87.256 39.5174C87.022 39.2712 86.7388 39.0771 86.4249 38.9476C86.111 38.8181 85.7734 38.7561 85.434 38.7658C85.0917 38.7575 84.7514 38.8199 84.4343 38.9493C84.1172 39.0786 83.8302 39.272 83.5912 39.5174Z" fill="white"/>
<path d="M56.1091 18.1433V28.3813H51.0586V18.1433C51.0586 16.5882 50.7604 15.4339 50.1638 14.6805C49.5672 13.9271 48.634 13.5509 47.364 13.5518C46.1209 13.5518 45.1945 13.928 44.585 14.6805C43.9755 15.433 43.6699 16.5873 43.6682 18.1433V28.3813H38.6177V18.1433C38.6177 15.0062 39.4215 12.6329 41.029 11.0234C42.6365 9.41378 44.7486 8.60986 47.3653 8.61159C48.6603 8.61159 49.9203 8.77358 50.9913 9.22717C52.0623 9.68075 53.0503 10.2989 53.8053 11.1231C56.1207 13.6489 55.9627 15.7575 56.1091 18.1433Z" fill="#F15D6F"/>
<path d="M66.14 11.0285C64.5325 9.42069 62.4204 8.61677 59.8037 8.61677C58.5838 8.60186 57.3735 8.83326 56.245 9.29715C55.8879 9.44782 55.5436 9.62725 55.2155 9.83367C56.4243 10.9942 57.2728 12.4792 57.6592 14.1103C58.2186 13.741 58.9308 13.5518 59.8037 13.5518C61.0728 13.5518 62.0056 13.928 62.6021 14.6805C63.1987 15.433 63.497 16.5873 63.497 18.1433V28.3813H68.5474V18.1433C68.55 15.0097 67.7475 12.6381 66.14 11.0285Z" fill="white"/>
<path d="M73.6742 0L77.2484 3.57682L73.6704 7.15753L70.0975 3.58071L73.6742 0Z" fill="white"/>
<path d="M103.386 38.9278V36.3838H101.585V32.3988H98.9834V36.3838H95.0221C95.0126 36.1739 95.053 35.9648 95.1398 35.7735C95.2267 35.5823 95.3577 35.4144 95.5219 35.2835C95.8836 35.0062 96.3276 34.8579 96.7832 34.8624V32.3184C95.4624 32.3184 94.4316 32.6791 93.6908 33.4005C92.9501 34.1219 92.5266 35.1155 92.4204 36.3812H90.8794V38.9252H92.3803V46.395H94.9819V38.9278H98.9834V41.6713C98.9834 43.2869 99.3805 44.4887 100.175 45.2766C100.969 46.0645 102.04 46.4581 103.386 46.4572V43.9146C102.747 43.9146 102.286 43.7418 102.006 43.3962C101.725 43.0506 101.585 42.4765 101.585 41.6739V38.9278H103.386Z" fill="white"/>
<path d="M11.9333 15.8028H0V20.6652H11.9333V15.8028Z" fill="#F15D6F"/>
<path d="M0.309501 30.4704C1.23283 37.6474 4.30841 42.5162 9.5285 46.2732C14.6618 49.9667 21.2507 52 28.0817 52C34.8752 52 41.4369 49.9861 46.5573 46.3276C51.7618 42.6108 55.2337 37.2391 56.1194 31.0354H51.0496C49.5629 40.1071 39.69 46.9484 28.0817 46.9484C16.4735 46.9484 6.13564 39.7014 5.12166 30.5844C5.04785 29.9196 5.12166 28.4111 5.12166 28.4111H11.9851V23.5448H0C0 23.5448 0.0517994 28.4565 0.309501 30.4704Z" fill="#F15D6F"/>
</svg>
